<?xml version="1.0" standalone="no"?><!DOCTYPE svg PUBLIC "-//W3C//DTD SVG 1.1//EN" "http://www.w3.org/Graphics/SVG/1.1/DTD/svg11.dtd"><svg t="1653061186063" class="icon" viewBox="0 0 1024 1024" version="1.1" xmlns="http://www.w3.org/2000/svg" p-id="22272" xmlns:xlink="http://www.w3.org/1999/xlink" width="200" height="200"><defs><style type="text/css">@font-face { font-family: feedback-iconfont; src: url("//at.alicdn.com/t/font_1031158_u69w8yhxdu.woff2?t=1630033759944") format("woff2"), url("//at.alicdn.com/t/font_1031158_u69w8yhxdu.woff?t=1630033759944") format("woff"), url("//at.alicdn.com/t/font_1031158_u69w8yhxdu.ttf?t=1630033759944") format("truetype"); }
</style></defs><path d="M512 12.487805c274.731707 0 499.512195 224.780488 499.512195 499.512195s-224.780488 499.512195-499.512195 499.512195-499.512195-224.780488-499.512195-499.512195 224.780488-499.512195 499.512195-499.512195z" fill="#FFC760" p-id="22273"></path><path d="M494.292293 720.821073a12.887415 12.887415 0 0 1-16.808586 12.163122l-156.921756-54.022244a27.148488 27.148488 0 0 1-18.606829-25.974634V367.990634a27.448195 27.448195 0 0 1 36.139707-26.249366l138.489756 47.403708c10.46478 3.946146 17.507902 13.861463 17.732683 25.075512V720.796098z m227.777561-67.80878c0.124878 11.813463-7.442732 22.328195-18.656781 25.974634l-157.07161 54.022244a12.737561 12.737561 0 0 1-16.808585-12.138147V414.020683c0.22478-11.189073 7.242927-21.129366 17.732683-25.050537l138.614634-47.253853a27.448195 27.448195 0 0 1 36.164683 25.799805v285.471219z" fill="#FFFFFF" p-id="22274"></path></svg>