<?xml version="1.0" standalone="no"?><!DOCTYPE svg PUBLIC "-//W3C//DTD SVG 1.1//EN" "http://www.w3.org/Graphics/SVG/1.1/DTD/svg11.dtd"><svg t="1653060627724" class="icon" viewBox="0 0 1024 1024" version="1.1" xmlns="http://www.w3.org/2000/svg" p-id="10839" xmlns:xlink="http://www.w3.org/1999/xlink" width="200" height="200"><defs><style type="text/css">@font-face { font-family: feedback-iconfont; src: url("//at.alicdn.com/t/font_1031158_u69w8yhxdu.woff2?t=1630033759944") format("woff2"), url("//at.alicdn.com/t/font_1031158_u69w8yhxdu.woff?t=1630033759944") format("woff"), url("//at.alicdn.com/t/font_1031158_u69w8yhxdu.ttf?t=1630033759944") format("truetype"); }
</style></defs><path d="M102.4 102.4m307.2 0l204.8 0q307.2 0 307.2 307.2l0 204.8q0 307.2-307.2 307.2l-204.8 0q-307.2 0-307.2-307.2l0-204.8q0-307.2 307.2-307.2Z" fill="#867EFC" fill-opacity=".2" p-id="10840"></path><path d="M286.72 460.8m40.96 0l61.44 0q40.96 0 40.96 40.96l0 122.88q0 40.96-40.96 40.96l-61.44 0q-40.96 0-40.96-40.96l0-122.88q0-40.96 40.96-40.96Z" fill="#867EFC" p-id="10841"></path><path d="M440.32 307.2m40.96 0l61.44 0q40.96 0 40.96 40.96l0 276.48q0 40.96-40.96 40.96l-61.44 0q-40.96 0-40.96-40.96l0-276.48q0-40.96 40.96-40.96Z" fill="#867EFC" p-id="10842"></path><path d="M737.28 686.08m0 30.72l0 20.48q0 30.72-30.72 30.72l-389.12 0q-30.72 0-30.72-30.72l0-20.48q0-30.72 30.72-30.72l389.12 0q30.72 0 30.72 30.72Z" fill="#867EFC" fill-opacity=".6" p-id="10843"></path><path d="M593.92 399.36m40.96 0l61.44 0q40.96 0 40.96 40.96l0 184.32q0 40.96-40.96 40.96l-61.44 0q-40.96 0-40.96-40.96l0-184.32q0-40.96 40.96-40.96Z" fill="#867EFC" p-id="10844"></path></svg>