<?xml version="1.0" standalone="no"?><!DOCTYPE svg PUBLIC "-//W3C//DTD SVG 1.1//EN" "http://www.w3.org/Graphics/SVG/1.1/DTD/svg11.dtd"><svg t="1653061619192" class="icon" viewBox="0 0 1024 1024" version="1.1" xmlns="http://www.w3.org/2000/svg" p-id="1662" xmlns:xlink="http://www.w3.org/1999/xlink" width="200" height="200"><defs><style type="text/css">@font-face { font-family: feedback-iconfont; src: url("//at.alicdn.com/t/font_1031158_u69w8yhxdu.woff2?t=1630033759944") format("woff2"), url("//at.alicdn.com/t/font_1031158_u69w8yhxdu.woff?t=1630033759944") format("woff"), url("//at.alicdn.com/t/font_1031158_u69w8yhxdu.ttf?t=1630033759944") format("truetype"); }
</style></defs><path d="M0 0m204.8 0l614.4 0q204.8 0 204.8 204.8l0 614.4q0 204.8-204.8 204.8l-614.4 0q-204.8 0-204.8-204.8l0-614.4q0-204.8 204.8-204.8Z" fill="#FF9FC6" p-id="1663"></path><path d="M819.2 0H534.272A756.48 756.48 0 0 0 0 483.584V819.2a204.8 204.8 0 0 0 204.8 204.8h614.4a204.8 204.8 0 0 0 204.8-204.8V204.8a204.8 204.8 0 0 0-204.8-204.8z" fill="#FF99BE" p-id="1664"></path><path d="M819.2 0h-3.84a755.2 755.2 0 0 0-539.392 1024H819.2a204.8 204.8 0 0 0 204.8-204.8V204.8a204.8 204.8 0 0 0-204.8-204.8z" fill="#FF8FB2" p-id="1665"></path><path d="M497.152 721.152A752.384 752.384 0 0 0 560.384 1024H819.2a204.8 204.8 0 0 0 204.8-204.8V204.8a204.8 204.8 0 0 0-89.088-168.96 755.2 755.2 0 0 0-437.76 685.312z" fill="#FF8AA9" p-id="1666"></path><path d="M243.2 204.8m51.2 0l435.2 0q51.2 0 51.2 51.2l0 512q0 51.2-51.2 51.2l-435.2 0q-51.2 0-51.2-51.2l0-512q0-51.2 51.2-51.2Z" fill="#FFEBF8" p-id="1667"></path><path d="M780.8 256a51.2 51.2 0 0 0-51.2-51.2h-435.2a51.2 51.2 0 0 0-51.2 51.2v512a51.2 51.2 0 0 0 51.2 51.2h162.816A591.36 591.36 0 0 0 691.2 614.4a612.352 612.352 0 0 0 89.088-199.936z" fill="#FFFDF3" p-id="1668"></path><path d="M358.4 486.4m25.6 0l256 0q25.6 0 25.6 25.6l0 0q0 25.6-25.6 25.6l-256 0q-25.6 0-25.6-25.6l0 0q0-25.6 25.6-25.6Z" fill="#FFC0D8" p-id="1669"></path><path d="M358.4 358.4m25.6 0l256 0q25.6 0 25.6 25.6l0 0q0 25.6-25.6 25.6l-256 0q-25.6 0-25.6-25.6l0 0q0-25.6 25.6-25.6Z" fill="#FFC0D8" p-id="1670"></path></svg>